<svg xmlns="http://www.w3.org/2000/svg" width="98.732" height="37.315" viewBox="0 0 98.732 37.315">
  <g id="Group_616" data-name="Group 616" transform="translate(-909.625 -1475.846)">
    <path id="Path_172" data-name="Path 172" d="M920.555,1537.359l-9.87-13.828h-1.061v14.847h.84v-13.5l9.639,13.5H921.4v-14.847h-.84Z" transform="translate(0 -32.219)" fill="#8caba0"/>
    <rect id="Rectangle_457" data-name="Rectangle 457" width="0.84" height="14.847" transform="translate(923.821 1491.312)" fill="#8caba0"/>
    <path id="Path_173" data-name="Path 173" d="M974.393,1537.359l-9.87-13.828h-1.06v14.847h.84v-13.5l9.639,13.5h1.291v-14.847h-.84Z" transform="translate(-36.377 -32.219)" fill="#8caba0"/>
    <path id="Path_174" data-name="Path 174" d="M1036.668,1523.531l-5.449,14.847h.892l2.416-6.531h5.134l2.374,6.531h.882l-5.387-14.847Zm-1.837,7.486,2.268-6.226,2.258,6.226Z" transform="translate(-82.157 -32.219)" fill="#8caba0"/>
    <path id="Path_175" data-name="Path 175" d="M1006.927,1501.012c-.07-.74-.467-1.1-.995-.888q-2.795,1.115-5.576,2.264c-.433.178-.837.431-.558,1,.26.528.652.51,1.169.281,1.3-.573,2.627-1.065,3.939-1.6.439-.18.674-.229.74.417.425,4.145.7,8.3.713,12.464a47.084,47.084,0,0,1-.153,5.13c-.184,1.943-.461,3.854-1.994,5.277-.992.92-1.977,1.846-2.97,2.766-.367.34-.562.71-.184,1.153s.737.243,1.083-.053c.56-.479,1.133-.943,1.67-1.447,1.667-1.563,3.209-3.2,3.556-5.636a42.822,42.822,0,0,0,.436-4.953,94.2,94.2,0,0,0-.385-10.771C1007.26,1504.61,1007.1,1502.811,1006.927,1501.012Z" transform="translate(-60.865 -16.364)" fill="#8caba0"/>
    <path id="Path_176" data-name="Path 176" d="M1010.118,1488.15a.985.985,0,0,0-.686,1.162,1.133,1.133,0,0,0,1.32.933,9.7,9.7,0,0,0,1.167-.318,1.026,1.026,0,0,0,.652-1.322.988.988,0,0,0-1.179-.761A7.075,7.075,0,0,0,1010.118,1488.15Z" transform="translate(-67.422 -8.097)" fill="#8caba0"/>
    <path id="Path_177" data-name="Path 177" d="M1009.716,1478.061a1.15,1.15,0,0,0,1.228-1.016,1.184,1.184,0,0,0-1.064-1.2,1.12,1.12,0,0,0-1.174.98A1.139,1.139,0,0,0,1009.716,1478.061Z" transform="translate(-66.943 0)" fill="#8caba0"/>
    <path id="Path_178" data-name="Path 178" d="M1186.925,1544H1189l-1.043-3.107Z" transform="translate(-187.363 -43.95)" fill="#8caba0"/>
    <path id="Path_179" data-name="Path 179" d="M1093.744,1544h2.075l-1.043-3.107Z" transform="translate(-124.404 -43.95)" fill="#8caba0"/>
    <path id="Path_180" data-name="Path 180" d="M1117.987,1538.7h-1.374v2.492h1.38a1.412,1.412,0,0,0,1-.328,1.171,1.171,0,0,0,.354-.9,1.255,1.255,0,0,0-.333-.924A1.386,1.386,0,0,0,1117.987,1538.7Z" transform="translate(-139.855 -42.465)" fill="#8caba0"/>
    <path id="Path_181" data-name="Path 181" d="M1108.8,1523.531h-46.259l5.387,14.847h43.748Zm-33.027,11.834-.576-1.711h-3l-.57,1.711h-1.819l3.09-8.3h1.585l3.107,8.3Zm9.059,0H1083l-1.557-3.039h-1.362v3.039h-1.71v-8.3h3.084a3.488,3.488,0,0,1,2.269.656,2.264,2.264,0,0,1,.8,1.853,2.553,2.553,0,0,1-.368,1.417,2.509,2.509,0,0,1-1.115.9l1.8,3.392Zm6.551,0h-5.565v-8.3h5.553v1.385h-3.843v1.978h3.284v1.34h-3.284v2.224h3.854Zm7.753,0h-1.71l-3.329-5.462v5.462h-1.711v-8.3h1.711l3.335,5.473v-5.473h1.7Zm6.858,0-.576-1.711h-3l-.57,1.711h-1.818l3.09-8.3h1.585l3.107,8.3Z" transform="translate(-103.324 -32.219)" fill="#8caba0"/>
  </g>
</svg>
